<svg width="44" height="41" viewBox="0 0 44 41" fill="none" xmlns="http://www.w3.org/2000/svg">
<path d="M0.502197 0.918152H39C41.7614 0.918152 44 3.15673 44 5.91815V35.9182C44 38.6796 41.7614 40.9182 39 40.9182H0.502197V0.918152Z" fill="#FF8F27"/>
<path d="M31.9582 13.8673C31.5677 13.4767 30.9346 13.4767 30.544 13.8673L18.5634 25.848L13.9582 21.2428C13.5677 20.8523 12.9346 20.8523 12.544 21.2428C12.1535 21.6333 12.1535 22.2665 12.544 22.657L17.8563 27.9692C18.2467 28.3597 18.8803 28.3594 19.2705 27.9692L31.9582 15.2815C32.3488 14.891 32.3487 14.2578 31.9582 13.8673Z" fill="white"/>
</svg>
